<svg width="32" height="32" fill="none" xmlns="http://www.w3.org/2000/svg"><g clip-path="url('#clip0_102_51')"><path d="M28 9.333C28 8.597 27.403 8 26.667 8h-9.334a1.333 1.333 0 0 0 0 2.667h9.334c.736 0 1.333-.597 1.333-1.334ZM28 16c0-.736-.597-1.333-1.333-1.333H5.333a1.333 1.333 0 1 0 0 2.666h21.334c.736 0 1.333-.597 1.333-1.333Zm-1.333 8a1.333 1.333 0 0 0 0-2.667H12A1.333 1.333 0 0 0 12 24h14.667Z" fill="#fff"/></g><defs><clipPath id="clip0_102_51"><path fill="#fff" transform="rotate(180 16 16)" d="M0 0h32v32H0z"/></clipPath></defs></svg>